<?xml version="1.0" encoding="UTF-8"?>
<svg width="851px" height="327px" viewBox="0 0 851 327" version="1.1" xmlns="http://www.w3.org/2000/svg" xmlns:xlink="http://www.w3.org/1999/xlink">
    <!-- Generator: Sketch 64 (93537) - https://sketch.com -->
    <title>pinot</title>
    <desc>Created with Sketch.</desc>
    <g id="Page-1" stroke="none" stroke-width="1" fill="none" fill-rule="evenodd">
        <path d="M101.5,12.8027896 C98.5,9.80278959 98.3,6.40278959 101.1,2.90278959 C105.2,-2.39721041 112,0.60278959 112,7.60278959 C112,14.6027896 106.1,17.5027896 101.5,12.8027896 Z" id="Path" fill="#000000" fill-rule="nonzero" transform="translate(105.559592, 7.651395) scale(-1, 1) rotate(-180.000000) translate(-105.559592, -7.651395) "></path>
        <path d="M50.6,31.8826375 C46.7,27.9826375 47.8,21.2826375 52.7,19.3826375 C58.6,17.1826375 63.9,26.6826375 59.4,31.5826375 C57.3,33.8826375 52.7,34.0826375 50.6,31.8826375 Z" id="Path" fill="#000000" fill-rule="nonzero" transform="translate(54.663061, 26.241319) scale(-1, 1) rotate(-180.000000) translate(-54.663061, -26.241319) "></path>
        <path d="M101.2,325.394269 C99,323.894269 99,323.694269 99,294.694269 C99,262.294269 98.8,260.994269 93,260.994269 C87.5,260.994269 87,262.594269 87,279.594269 C87,294.894269 87,295.094269 84.4,297.594269 C82.5,299.594269 81.3,299.994269 79.2,299.494269 C73.9,298.194269 74,298.994269 74,265.494269 L74,234.294269 L79.6,237.194269 C84.3,239.494269 86.6,239.994269 92.6,239.994269 C106.7,239.994269 117.2,231.694269 120.6,217.794269 C122.1,211.894269 122.1,210.794269 120.6,204.994269 C117.9,194.594269 110.3,186.494269 100.6,183.894269 C94.2,182.194269 85,183.194269 79.1,186.194269 L74,188.894269 L74,174.394269 C74,160.294269 73.9,159.794269 71.5,157.494269 C70.2,156.094269 68.4,154.994269 67.5,154.994269 C66.6,154.994269 64.8,156.094269 63.5,157.494269 L61,159.894269 L61,233.794269 L61,307.694269 L58.5,308.794269 C55.8,309.994269 53.5,309.594269 50.8,307.194269 C49.4,306.094269 49,304.094269 49,299.294269 L49,292.994269 L37.5,292.994269 L25.9,292.994269 L24.1,288.794269 C22.3,284.394269 6.8,229.494269 2.8,213.494269 C1.1,206.394269 0.7,201.594269 0.7,190.494269 C0.7,174.194269 2.6,165.494269 8.9,152.494269 C17.9,133.794269 30.6,121.694269 53.6,110.194269 C66.1,103.894269 68.9,101.594269 72.4,94.4942686 C76.1,86.8942686 77.7,78.6942686 79.1,59.6942686 C80.1,46.3942686 80,43.5942686 78.9,42.5942686 C78.1,41.8942686 68.5,38.4942686 57.5,35.0942686 C46.5,31.5942686 37.3,28.5942686 37.1,28.3942686 C36.9,28.1942686 58,27.9942686 84.1,28.0942686 C112.1,28.0942686 130.5,28.4942686 129,28.9942686 C127.6,29.4942686 117.8,32.6942686 107.1,35.9942686 L87.7,42.1942686 L88.3,56.3942686 C89,72.9942686 90.2,81.1942686 93.2,89.7942686 C96.6,99.4942686 100.2,102.894269 114.6,110.194269 C141.6,123.794269 157,139.994269 164,162.494269 C167.2,172.494269 167.8,190.894269 165.5,205.494269 C162.3,226.194269 144.6,289.394269 141.3,291.694269 C140.2,292.594269 135.3,292.994269 125.8,292.994269 L112,292.994269 L112,307.994269 C112,321.694269 111.8,323.194269 110,324.994269 C107.6,327.394269 104.3,327.594269 101.2,325.394269 Z" id="Path" fill="#000000" fill-rule="nonzero" transform="translate(83.793706, 177.497134) scale(-1, 1) rotate(-180.000000) translate(-83.793706, -177.497134) "></path>
        <path d="M75.7,41.0980294 C73.4,38.5980294 73.5,32.5980294 75.8,30.5980294 C77.7,28.7980294 81.7,28.3980294 83.6,29.6980294 C85.6,30.9980294 87.2,35.0980294 86.6,37.3980294 C85.3,42.6980294 79,44.7980294 75.7,41.0980294 Z" id="Path" fill="#000000" fill-rule="nonzero" transform="translate(80.375954, 35.949015) scale(-1, 1) rotate(-180.000000) translate(-80.375954, -35.949015) "></path>
        <path d="M85,156.45979 C79.5,152.65979 77.5,149.15979 77.5,143.15979 C77.5,134.65979 83.1,128.65979 91.7,127.95979 C100.8,127.25979 108,134.15979 108,143.65979 C108,155.25979 94.3,162.75979 85,156.45979 Z" id="Path" fill="#000000" fill-rule="nonzero" transform="translate(92.750000, 143.329895) scale(-1, 1) rotate(-180.000000) translate(-92.750000, -143.329895) "></path>
        <path d="M409.753404,96.8902798 C403.035734,93.3600049 399.676898,87.8819922 399.054891,79.9693071 C398.557286,72.056622 401.418516,66.7003428 408.633793,61.9527318 C414.605056,57.9355224 425.179167,58.057256 431.274832,62.0744654 C443.092956,69.8654169 442.844154,87.3950577 430.901628,96.0381445 C426.049976,99.5684194 415.600266,100.055354 409.753404,96.8902798 Z" id="Path" fill="#000000" fill-rule="nonzero" transform="translate(419.500000, 79.000000) scale(-1, 1) rotate(-180.000000) translate(-419.500000, -79.000000) "></path>
        <polygon id="Path" fill="#000000" fill-rule="nonzero" transform="translate(821.000000, 178.500000) scale(-1, 1) rotate(-180.000000) translate(-821.000000, -178.500000) " points="803.244898 246.349767 803.244898 221.699534 797.122449 221.699534 791 221.699534 791 206.909394 791 192.119254 797.122449 192.119254 803.244898 192.119254 803.489796 139.491006 803.857143 86.739507 819.530612 86.3697535 835.081633 86 835.081633 139.121252 835.081633 192.119254 843.040816 192.119254 851 192.119254 851 206.909394 851 221.699534 843.040816 221.699534 835.081633 221.699534 835.081633 246.349767 835.081633 271 819.163265 271 803.244898 271"></polygon>
        <path d="M528.072646,269.340519 C521.925176,267.139506 513.770368,262.492924 509.504777,258.70229 L506.619229,256.256721 L506.619229,261.881531 L506.619229,267.62862 L490.309615,267.62862 L474,267.62862 L474,200.375449 L474,133.122278 L490.184156,133.122278 L506.368312,133.122278 L506.870147,176.286586 C507.49744,224.464313 508.124732,228.621781 516.028623,236.325326 C521.046966,241.216466 530.3309,243.784314 539.489376,242.806086 C551.533399,241.338745 557.053577,235.591655 559.311831,221.651907 C560.064582,217.616717 560.566417,196.095702 560.566417,173.718738 L560.566417,133 L576.625114,133.366835 L592.558353,133.733671 L592.934729,176.531143 C593.185646,202.698741 592.683812,223.363806 591.93106,229.722288 C589.421889,248.675454 581.39254,260.414189 566.212053,267.261785 C559.813665,270.07419 556.677201,270.685583 546.138681,270.93014 C536.980205,271.174697 532.08732,270.807861 528.072646,269.340519 Z" id="Path" fill="#000000" fill-rule="nonzero" transform="translate(533.500000, 202.000000) scale(-1, 1) rotate(-180.000000) translate(-533.500000, -202.000000) "></path>
        <path d="M677.52103,274.437991 C665.407725,271.469256 654.901288,265.284393 645.012876,255.264914 C630.180258,240.297545 624,225.701267 624,205.043824 C624,162.368267 658.238627,130.330675 700.635193,133.175712 C713.119313,134.041593 722.266094,136.515538 731.536481,141.587126 C746.987124,150.245935 758.853219,163.976331 764.662661,180.056976 C767.505579,187.849904 768,190.818638 768,204.425338 C768,217.413551 767.505579,221.248166 765.157082,228.175213 C757.369957,250.564418 737.963948,268.376825 714.849785,274.314293 C706.07382,276.540844 686.544206,276.540844 677.52103,274.437991 Z M707.823482,246.180044 C716.284474,243.667358 723.750055,238.516352 728.104977,232.234638 C740.049907,214.897107 738.183512,186.629394 724.24776,172.055817 C717.155458,164.643394 707.823482,161 696.002978,161 C685.426738,161.125634 679.703126,162.884514 671.490987,168.663691 C658.177367,177.960628 652.080476,202.96185 658.675073,221.806993 C665.767375,242.034112 686.919855,252.461758 707.823482,246.180044 Z" id="Shape" fill="#000000" fill-rule="nonzero" transform="translate(696.000000, 204.500000) scale(-1, 1) rotate(-180.000000) translate(-696.000000, -204.500000) "></path>
        <polygon id="Path" fill="#000000" fill-rule="nonzero" transform="translate(420.500000, 203.500000) scale(-1, 1) rotate(-180.000000) translate(-420.500000, -203.500000) " points="404 203.561308 404 136 420.246154 136.367847 436.365385 136.735695 436.746154 203.929155 437 271 420.5 271 404 271"></polygon>
        <path d="M285.568834,325.759393 C278.634681,324.648318 267.738153,320.697827 263.651955,317.858411 C259.93723,315.265902 259.194285,315.512807 259.194285,319.710204 L259.194285,323.413789 L243.097143,323.413789 L227,323.413789 L227,230.206895 L227,137 L243.097143,137 L259.194285,137 L259.194285,165.887965 L259.194285,194.899382 L266.376087,191.195797 C276.405845,186.134231 286.435603,183.912079 299.437142,183.912079 C320.982548,183.912079 337.698811,190.578533 351.938591,204.899062 C366.178371,219.096139 371.998108,233.540121 371.998108,255.144368 C372.121932,276.50171 366.178371,291.069145 351.443295,305.760033 C334.10791,323.043431 311.200438,330.080243 285.568834,325.759393 Z M312.074571,297.155762 C329.427618,292.810927 340.134817,275.059173 338.904104,252.714306 C338.042606,238.686696 334.719682,230.865993 326.227765,222.921152 C317.735848,215.224587 309.120861,212.369409 296.690664,213.114238 C281.5529,214.107343 270.476487,221.67977 264.199853,235.08669 C261.369214,241.293597 261,243.528084 261,255.693622 C261,267.85916 261.369214,270.093647 264.199853,276.176416 C268.507347,285.362639 272.445627,289.95575 280.076044,294.052309 C289.798674,299.390249 299.521303,300.383354 312.074571,297.155762 Z" id="Shape" fill="#000000" fill-rule="nonzero" transform="translate(299.500000, 232.000000) scale(-1, 1) rotate(-180.000000) translate(-299.500000, -232.000000) "></path>
    </g>
</svg>