<?xml version="1.0" encoding="UTF-8"?>
<svg width="851px" height="327px" viewBox="0 0 851 327" version="1.1" xmlns="http://www.w3.org/2000/svg" xmlns:xlink="http://www.w3.org/1999/xlink">
    <!-- Generator: Sketch 61 (89581) - https://sketch.com -->
    <title>pinot-navbar-logo-722f37</title>
    <desc>Created with Sketch.</desc>
    <g id="Page-1" stroke="none" stroke-width="1" fill="none" fill-rule="evenodd">
        <g id="pinot-navbar-logo-722f37" fill="#722F37" fill-rule="nonzero">
            <path d="M101.5,12.80279 C98.5,9.80278999 98.3,6.40278999 101.1,2.90278999 C105.2,-2.39721001 112,0.602789991 112,7.60278999 C112,14.60279 106.1,17.50279 101.5,12.80279 Z" id="Path" transform="translate(105.559592, 7.651395) scale(-1, 1) rotate(-180.000000) translate(-105.559592, -7.651395) "></path>
            <path d="M50.6,31.882638 C46.7,27.982638 47.8,21.282638 52.7,19.382638 C58.6,17.182638 63.9,26.682638 59.4,31.582638 C57.3,33.882638 52.7,34.082638 50.6,31.882638 Z" id="Path" transform="translate(54.663061, 26.241319) scale(-1, 1) rotate(-180.000000) translate(-54.663061, -26.241319) "></path>
            <path d="M101.2,325.394268 C99,323.894268 99,323.694268 99,294.694268 C99,262.294268 98.8,260.994268 93,260.994268 C87.5,260.994268 87,262.594268 87,279.594268 C87,294.894268 87,295.094268 84.4,297.594268 C82.5,299.594268 81.3,299.994268 79.2,299.494268 C73.9,298.194268 74,298.994268 74,265.494268 L74,234.294268 L79.6,237.194268 C84.3,239.494268 86.6,239.994268 92.6,239.994268 C106.7,239.994268 117.2,231.694268 120.6,217.794268 C122.1,211.894268 122.1,210.794268 120.6,204.994268 C117.9,194.594268 110.3,186.494268 100.6,183.894268 C94.2,182.194268 85,183.194268 79.1,186.194268 L74,188.894268 L74,174.394268 C74,160.294268 73.9,159.794268 71.5,157.494268 C70.2,156.094268 68.4,154.994268 67.5,154.994268 C66.6,154.994268 64.8,156.094268 63.5,157.494268 L61,159.894268 L61,233.794268 L61,307.694268 L58.5,308.794268 C55.8,309.994268 53.5,309.594268 50.8,307.194268 C49.4,306.094268 49,304.094268 49,299.294268 L49,292.994268 L37.5,292.994268 L25.9,292.994268 L24.1,288.794268 C22.3,284.394268 6.8,229.494268 2.8,213.494268 C1.1,206.394268 0.7,201.594268 0.7,190.494268 C0.7,174.194268 2.6,165.494268 8.9,152.494268 C17.9,133.794268 30.6,121.694268 53.6,110.194268 C66.1,103.894268 68.9,101.594268 72.4,94.4942676 C76.1,86.8942676 77.7,78.6942676 79.1,59.6942676 C80.1,46.3942676 80,43.5942676 78.9,42.5942676 C78.1,41.8942676 68.5,38.4942676 57.5,35.0942676 C46.5,31.5942676 37.3,28.5942676 37.1,28.3942676 C36.9,28.1942676 58,27.9942676 84.1,28.0942676 C112.1,28.0942676 130.5,28.4942676 129,28.9942676 C127.6,29.4942676 117.8,32.6942676 107.1,35.9942676 L87.7,42.1942676 L88.3,56.3942676 C89,72.9942676 90.2,81.1942676 93.2,89.7942676 C96.6,99.4942676 100.2,102.894268 114.6,110.194268 C141.6,123.794268 157,139.994268 164,162.494268 C167.2,172.494268 167.8,190.894268 165.5,205.494268 C162.3,226.194268 144.6,289.394268 141.3,291.694268 C140.2,292.594268 135.3,292.994268 125.8,292.994268 L112,292.994268 L112,307.994268 C112,321.694268 111.8,323.194268 110,324.994268 C107.6,327.394268 104.3,327.594268 101.2,325.394268 Z" id="Path" transform="translate(83.793706, 177.497133) scale(-1, 1) rotate(-180.000000) translate(-83.793706, -177.497133) "></path>
            <path d="M75.7,41.09803 C73.4,38.59803 73.5,32.59803 75.8,30.59803 C77.7,28.79803 81.7,28.39803 83.6,29.69803 C85.6,30.99803 87.2,35.09803 86.6,37.39803 C85.3,42.69803 79,44.79803 75.7,41.09803 Z" id="Path" transform="translate(80.375954, 35.949015) scale(-1, 1) rotate(-180.000000) translate(-80.375954, -35.949015) "></path>
            <path d="M85,156.45979 C79.5,152.65979 77.5,149.15979 77.5,143.15979 C77.5,134.65979 83.1,128.65979 91.7,127.95979 C100.8,127.25979 108,134.15979 108,143.65979 C108,155.25979 94.3,162.75979 85,156.45979 Z" id="Path" transform="translate(92.750000, 143.329895) scale(-1, 1) rotate(-180.000000) translate(-92.750000, -143.329895) "></path>
            <path d="M409.753404,96.8902798 C403.035734,93.3600049 399.676898,87.8819922 399.054891,79.9693071 C398.557286,72.056622 401.418516,66.7003428 408.633793,61.9527318 C414.605056,57.9355224 425.179167,58.057256 431.274832,62.0744654 C443.092956,69.8654169 442.844154,87.3950577 430.901628,96.0381445 C426.049976,99.5684194 415.600266,100.055354 409.753404,96.8902798 Z" id="Path" transform="translate(419.500000, 79.000000) scale(-1, 1) rotate(-180.000000) translate(-419.500000, -79.000000) "></path>
            <polygon id="Path" transform="translate(821.000000, 178.500000) scale(-1, 1) rotate(-180.000000) translate(-821.000000, -178.500000) " points="803.244898 246.349767 803.244898 221.699534 797.122449 221.699534 791 221.699534 791 206.909394 791 192.119254 797.122449 192.119254 803.244898 192.119254 803.489796 139.491006 803.857143 86.739507 819.530612 86.3697535 835.081633 86 835.081633 139.121252 835.081633 192.119254 843.040816 192.119254 851 192.119254 851 206.909394 851 221.699534 843.040816 221.699534 835.081633 221.699534 835.081633 246.349767 835.081633 271 819.163265 271 803.244898 271"></polygon>
            <path d="M528.072646,269.340519 C521.925176,267.139506 513.770368,262.492924 509.504777,258.70229 L506.619229,256.256721 L506.619229,261.881531 L506.619229,267.62862 L490.309615,267.62862 L474,267.62862 L474,200.375449 L474,133.122278 L490.184156,133.122278 L506.368312,133.122278 L506.870147,176.286586 C507.49744,224.464313 508.124732,228.621781 516.028623,236.325326 C521.046966,241.216466 530.3309,243.784314 539.489376,242.806086 C551.533399,241.338745 557.053577,235.591655 559.311831,221.651907 C560.064582,217.616717 560.566417,196.095702 560.566417,173.718738 L560.566417,133 L576.625114,133.366835 L592.558353,133.733671 L592.934729,176.531143 C593.185646,202.698741 592.683812,223.363806 591.93106,229.722288 C589.421889,248.675454 581.39254,260.414189 566.212053,267.261785 C559.813665,270.07419 556.677201,270.685583 546.138681,270.93014 C536.980205,271.174697 532.08732,270.807861 528.072646,269.340519 Z" id="Path" transform="translate(533.500000, 202.000000) scale(-1, 1) rotate(-180.000000) translate(-533.500000, -202.000000) "></path>
            <path d="M677.52103,274.437991 C665.407725,271.469256 654.901288,265.284393 645.012876,255.264914 C630.180258,240.297545 624,225.701267 624,205.043824 C624,162.368267 658.238627,130.330675 700.635193,133.175712 C713.119313,134.041593 722.266094,136.515538 731.536481,141.587126 C746.987124,150.245935 758.853219,163.976331 764.662661,180.056976 C767.505579,187.849904 768,190.818638 768,204.425338 C768,217.413551 767.505579,221.248166 765.157082,228.175213 C757.369957,250.564418 737.963948,268.376825 714.849785,274.314293 C706.07382,276.540844 686.544206,276.540844 677.52103,274.437991 Z M707.823482,246.180044 C716.284474,243.667358 723.750055,238.516352 728.104977,232.234638 C740.049907,214.897107 738.183512,186.629394 724.24776,172.055817 C717.155458,164.643394 707.823482,161 696.002978,161 C685.426738,161.125634 679.703126,162.884514 671.490987,168.663691 C658.177367,177.960628 652.080476,202.96185 658.675073,221.806993 C665.767375,242.034112 686.919855,252.461758 707.823482,246.180044 Z" id="Shape" transform="translate(696.000000, 204.500000) scale(-1, 1) rotate(-180.000000) translate(-696.000000, -204.500000) "></path>
            <polygon id="Path" transform="translate(420.500000, 203.500000) scale(-1, 1) rotate(-180.000000) translate(-420.500000, -203.500000) " points="404 203.561308 404 136 420.246154 136.367847 436.365385 136.735695 436.746154 203.929155 437 271 420.5 271 404 271"></polygon>
            <path d="M285.568834,325.759393 C278.634681,324.648318 267.738153,320.697827 263.651955,317.858411 C259.93723,315.265902 259.194285,315.512807 259.194285,319.710204 L259.194285,323.413789 L243.097143,323.413789 L227,323.413789 L227,230.206895 L227,137 L243.097143,137 L259.194285,137 L259.194285,165.887965 L259.194285,194.899382 L266.376087,191.195797 C276.405845,186.134231 286.435603,183.912079 299.437142,183.912079 C320.982548,183.912079 337.698811,190.578533 351.938591,204.899062 C366.178371,219.096139 371.998108,233.540121 371.998108,255.144368 C372.121932,276.50171 366.178371,291.069145 351.443295,305.760033 C334.10791,323.043431 311.200438,330.080243 285.568834,325.759393 Z M312.074571,297.155762 C329.427618,292.810927 340.134817,275.059173 338.904104,252.714306 C338.042606,238.686696 334.719682,230.865993 326.227765,222.921152 C317.735848,215.224587 309.120861,212.369409 296.690664,213.114238 C281.5529,214.107343 270.476487,221.67977 264.199853,235.08669 C261.369214,241.293597 261,243.528084 261,255.693622 C261,267.85916 261.369214,270.093647 264.199853,276.176416 C268.507347,285.362639 272.445627,289.95575 280.076044,294.052309 C289.798674,299.390249 299.521303,300.383354 312.074571,297.155762 Z" id="Shape" transform="translate(299.500000, 232.000000) scale(-1, 1) rotate(-180.000000) translate(-299.500000, -232.000000) "></path>
        </g>
    </g>
</svg>