<svg id="Layer_1" xmlns="http://www.w3.org/2000/svg" viewBox="0 0 400 400" width="2500" height="2500"><style>.st0{fill:#fff}</style><path id="XMLID_44_" d="M0 0h400v400H0z"/><g id="XMLID_34_"><path id="XMLID_43_" class="st0" d="M109.9 173.9v30.3c0 10.1-4.5 14.3-15 14.3s-15-4.2-15-14.3v-31.6h-10c-.9 0-1.3.4-1.3 1.3v30.7c0 16.9 10.8 22.8 26.4 22.8 15.6 0 26.4-5.9 26.4-22.8v-32.1h-10.1c-.9.1-1.4.5-1.4 1.4z"/><path id="XMLID_42_" class="st0" d="M256.4 181.3c.8 0 1.2-.3 1.5-.9l2.9-7.2c.2-.4 0-.7-.4-.7h-40.7c-3.8 0-5.2 1.2-5.2 3.8v47c0 2.2 1.1 3.2 4 3.2h37.9c.8 0 1.2-.3 1.5-.9l2.9-7.2c.2-.4 0-.7-.4-.7h-34.7v-9.6c0-3.3 1.8-4.8 6.7-4.8h15.1c.8 0 1.2-.3 1.5-.9l2.8-7c.2-.4 0-.7-.4-.7h-25.7v-13.5h30.7z"/><path id="XMLID_38_" class="st0" d="M184.7 198.1c4.4-2.3 6.2-6.7 6.2-11.8 0-11.9-9.7-13.7-19.8-13.7h-23c-3.8 0-5.2 1.2-5.2 3.8v47c0 2.2 1.1 3.2 4 3.2h28.3c10.7 0 18.3-4.1 18.3-14.9.1-6.6-2.7-12-8.8-13.6zm-30.5-16.9H172c6 0 7.6 2.2 7.6 6.9s-1.7 6.9-7.6 6.9h-17.8v-13.8zm19.9 36.6h-19.9v-9.9c0-3.3 1.8-4.8 6.7-4.8h13.2c6.3 0 8.1 2.4 8.1 7.4.1 5-1.7 7.3-8.1 7.3z"/><path id="XMLID_35_" class="st0" d="M331.3 225.6l-12.1-20.8c6-1.5 10.9-5.5 10.9-15.6 0-13.1-8.1-16.6-21.5-16.6h-23.1c-3.8 0-5.2 1.2-5.2 3.8v48.9c0 .9.4 1.3 1.3 1.3h9.9v-15.7c0-3.3 1.8-4.8 6.7-4.8h9.9l10.9 19.7c.3.6.7.9 1.5.9h10.3c.7-.2.7-.8.5-1.1zm-21.1-28h-18.8v-16.3h18.8c7 0 8.6 2.7 8.6 8.2 0 5.4-1.6 8.1-8.6 8.1z"/></g></svg>