<svg xmlns="http://www.w3.org/2000/svg" width="2500" height="762" viewBox="0 0.039 200 60.922"><path d="M5.53 41.936c0 8.758 11.402 15.86 25.47 15.86s25.47-7.103 25.47-15.86S45.067 26.077 31 26.077 5.53 33.178 5.53 41.936" fill="#fff"/><path d="M31.593 56.504c-12.45 1.228-23.197-4.398-24.007-12.573-.808-8.173 8.633-15.795 21.081-17.026 12.451-1.232 23.199 4.396 24.007 12.567.807 8.176-8.63 15.8-21.081 17.032m24.903-27.135c-1.059-.316-1.785-.533-1.231-1.924 1.201-3.022 1.325-5.628.023-7.488-2.441-3.487-9.121-3.3-16.778-.093 0-.005-2.404 1.052-1.79-.855 1.178-3.787 1-6.958-.833-8.789-4.153-4.157-15.2.157-24.674 9.627C4.119 26.942 0 34.461 0 40.963 0 53.4 15.949 60.961 31.552 60.961c20.453 0 34.059-11.884 34.059-21.318 0-5.701-4.801-8.936-9.115-10.274" fill="#e6162d"/><path d="M70.078 6.61C65.139 1.134 57.853-.953 51.128.476h-.002a2.879 2.879 0 0 0 1.203 5.632c4.784-1.016 9.961.472 13.475 4.36a14.156 14.156 0 0 1 2.957 13.847l.001.001a2.876 2.876 0 0 0 1.855 3.626 2.88 2.88 0 0 0 3.625-1.85l.001-.012c2.108-6.542.776-14-4.165-19.47" fill="#f93"/><path d="M62.492 13.455c-2.404-2.667-5.953-3.68-9.23-2.983a2.478 2.478 0 1 0 1.033 4.845v.002a4.752 4.752 0 0 1 4.515 1.456 4.737 4.737 0 0 1 .987 4.641h.002a2.48 2.48 0 0 0 1.595 3.122 2.48 2.48 0 0 0 3.121-1.598c1.03-3.187.386-6.819-2.023-9.485" fill="#f93"/><path d="M32.28 41.699c-.436.746-1.398 1.104-2.152.793-.742-.306-.975-1.138-.553-1.87.434-.728 1.36-1.083 2.099-.79.752.275 1.022 1.118.606 1.867m-3.967 5.093c-1.204 1.921-3.783 2.763-5.726 1.876-1.914-.871-2.479-3.104-1.273-4.977 1.189-1.865 3.681-2.697 5.609-1.889 1.95.832 2.574 3.049 1.39 4.99m4.525-13.598c-5.925-1.542-12.622 1.411-15.195 6.632-2.621 5.324-.086 11.234 5.898 13.167 6.201 1.999 13.509-1.064 16.05-6.812 2.507-5.618-.622-11.402-6.753-12.987M103.959 15.807c3.826-.034 7.443-.4 10.858-1.095l.167 2.058c-3.773.463-6.961.767-9.562.909l-1.67 6.224h10.098l-.486 1.817h-3.957l-3.75 13.999h-2.047l3.75-13.999h-4.094l-.351 1.31c-1.464 5.467-3.961 9.725-7.488 12.77a24.012 24.012 0 0 0-1.007-1.709c3.05-2.512 5.237-6.225 6.555-11.143l2.984-11.141zm-8.676 15.042a59.756 59.756 0 0 1 1.706 3.741l-2.084 1.176a30.935 30.935 0 0 0-1.533-3.874l1.911-1.043zm-6.172-14.24h5.975a55.53 55.53 0 0 0-.717-2.378l1.985-.801c.327.908.616 1.825.864 2.752l-1.039.427h5.877l-.459 1.709H88.653l.458-1.709zm-2.543 6.199h4.452c-.461-1.202-.923-2.236-1.383-3.099l1.766-1.016c.418.713.93 1.719 1.543 3.019l-1.855 1.096h3.649a109.247 109.247 0 0 0 3.89-4.142l1.677 1.069a147.689 147.689 0 0 1-3.382 3.073h4.193l-.459 1.709H86.11l.458-1.709zm-.566 4.996h5.642l.679-2.538h1.993l-.681 2.538h5.422l-.46 1.709h-5.42l-1.87 6.973c-.504 1.888-1.698 2.832-3.579 2.832-.791 0-1.684-.008-2.675-.026.084-.589.162-1.265.239-2.03 1.041.107 1.866.159 2.476.159.864 0 1.421-.452 1.665-1.361l1.751-6.546h-5.641l.459-1.71zm1.35 2.911l1.652.855a109.898 109.898 0 0 1-4.42 5.451c-.45-.321-.973-.643-1.568-.962 1.266-1.353 2.71-3.134 4.336-5.344M138.792 18.453h-11.95l-.872 3.258h11.95l.872-3.258zm-2.211 8.255l.878-3.286H125.51l-.879 3.286h11.95zm1.8 2.671l.912 1.657c-1.959 1.052-4.195 2.136-6.711 3.261 1.43 1.407 3.441 2.367 6.031 2.883-.57.481-1.271 1.169-2.1 2.059-5.27-1.531-8.271-5.119-9.008-10.767h-3.348l-2.27 8.469a103.008 103.008 0 0 0 6.507-2.297c-.294.962-.487 1.718-.579 2.271-2.239.713-4.48 1.505-6.723 2.377a24.03 24.03 0 0 0-1.583.748l-.772-1.869c.555-.283.938-.811 1.143-1.576l5.332-19.903h6.996a31.525 31.525 0 0 0-.64-2.566l2.138-.748a35.49 35.49 0 0 1 .801 3.314h6.859l-3.359 12.53h-2.102l.202-.75h-6.474c.322 1.692.934 3.198 1.834 4.516 2.205-1 4.51-2.201 6.914-3.609m-18.703-15.362c1.113 1.067 2.352 2.371 3.711 3.901-.791.624-1.482 1.175-2.072 1.655-1.492-1.868-2.64-3.231-3.443-4.086l1.804-1.47zm-2.905 6.921c1.131.944 2.426 2.155 3.894 3.634-.882.748-1.573 1.327-2.069 1.735-1.6-1.797-2.809-3.07-3.623-3.82l1.798-1.549zm.633 7.854c.652.321 1.307.624 1.97.908-2.021 3.545-3.952 6.937-5.798 10.179l-2.191-.799c1.92-2.976 3.928-6.405 6.019-10.288M168.148 20.591h-3.318l-.152.252c-.951 3.652-1.277 6.85-.979 9.591 1.401-2.207 2.884-5.489 4.449-9.843m-1.732-6.947l1.793.321a73.504 73.504 0 0 1-2.298 4.701h5.962l-.516 1.926h-1.328c-1.756 5.103-3.726 9.142-5.916 12.114.528 1.987 1.463 3.683 2.798 5.091-.591.694-1.162 1.38-1.71 2.056a14.488 14.488 0 0 1-2.664-5.182c-1.606 1.861-3.51 3.652-5.711 5.37a14.701 14.701 0 0 0-.908-1.684c2.502-1.834 4.564-3.75 6.188-5.743-.369-2.477-.255-5.25.35-8.324-.481.688-.971 1.35-1.475 1.992a7.92 7.92 0 0 0-.954-1.39c2.437-3.046 4.567-6.795 6.389-11.248m-15.518 8.976l1.755-6.545h1.769l-1.269 4.729h2.27l1.819-6.786h1.824l-1.818 6.786h2.268l1.274-4.755h1.772l-1.99 7.429h-1.771l.227-.856h-8.13zm-.085 2.378h8.796l-.502 1.87h-8.794l.5-1.87zm4.19 6.146h-3.651l-.328 1.229c-.859 3.205-2.4 5.484-4.629 6.839a12.78 12.78 0 0 0-.783-1.71c1.705-.927 2.908-2.706 3.616-5.344l.758-2.832h7.357l-1.245 4.648a213.047 213.047 0 0 0 3.576-2.51c-.041.783-.07 1.467-.082 2.056a104.777 104.777 0 0 0-4.228 2.886c-.506.374-.972.729-1.394 1.068l-.955-1.709c.627-.481 1.051-1.121 1.266-1.924l.722-2.697zM143.877 20.75c2.932-2.279 5.297-4.604 7.094-6.974l1.467.936a47.197 47.197 0 0 1-8.457 8.121 41.602 41.602 0 0 0-.104-2.083m-2.445 8.603c2.713-2.35 5.227-5.119 7.535-8.309l1.605.828a71.878 71.878 0 0 1-3.174 3.901l-3.759 14.025h-1.882l3.01-11.221a46.338 46.338 0 0 1-3.188 2.913 42.674 42.674 0 0 0-.147-2.137M196.691 16.664a37.26 37.26 0 0 0-3.03-1.685l1.22-1.363a42.772 42.772 0 0 1 3.07 1.55l-1.26 1.498zm-1.746 5.182h-5.172l-.48 1.79h5.17l.482-1.79zm-6.568 5.21h5.172l.486-1.818h-5.171l-.487 1.818zm-6.192-3.421h5.118l.479-1.79h-5.115l-.482 1.79zm-.915 3.421h5.115l.486-1.818h-5.115l-.486 1.818zm-2.922 7.907l1.604-1.335a33.257 33.257 0 0 1 3.059 2.619l-1.707 1.414a31.375 31.375 0 0 0-2.956-2.698m14.378-4.836l.393-1.469h-5.173l-.455 1.709h-1.993l.46-1.709h-5.117l-.538 2.004h-1.993l2.807-10.474h7.111l.473-1.765h-8.465l.459-1.709h8.462l.831-3.099h1.992l-.83 3.099H200l-.46 1.709h-8.851l-.475 1.765h7.164l-2.66 9.938h-1.992zm-16.79 1.656h14.191l.414-1.548h2.045l-.414 1.548h4.453l-.459 1.71h-4.453l-.822 3.075c-.541 2.012-1.914 3.019-4.129 3.019-1.051 0-2.346-.021-3.887-.055.078-.57.146-1.228.199-1.978 1.461.125 2.771.188 3.932.188 1.016 0 1.652-.481 1.908-1.443l.754-2.807h-14.191l.459-1.709zm-3.927-10.632h2.794l2.018-7.535h2.049l-2.021 7.535h2.656l-.515 1.924h-2.656l-4.511 16.833h-2.046l4.511-16.833h-2.793l.514-1.924zM96.391 47.426l-6.574 11.125h-1.57l-.573-8.262-4.771 8.262H81.31l-.768-11.125h1.945l.496 8.293 4.815-8.293h1.416l.577 8.327 5.036-8.327h1.564zM105.754 51.853c.148-.625.185-1.178.1-1.663-.086-.483-.338-.897-.755-1.238-.419-.343-.987-.515-1.704-.515-.963 0-1.863.312-2.7.927-.837.617-1.436 1.446-1.797 2.489h6.856zm-.799 3.381l1.717.33c-.583.951-1.436 1.738-2.559 2.359a7.336 7.336 0 0 1-3.623.936c-1.705 0-2.94-.535-3.707-1.605-.768-1.07-.92-2.47-.456-4.207.476-1.771 1.407-3.201 2.794-4.292 1.387-1.093 2.909-1.64 4.563-1.64 1.631 0 2.811.505 3.531 1.511.722 1.005.829 2.511.313 4.515h-9.062c-.452 1.682-.361 2.816.271 3.404a3.228 3.228 0 0 0 2.273.883c1.59 0 2.906-.733 3.945-2.194M115.027 43.515l-.514 1.927h-2.088l.514-1.927h2.088zm-1.107 3.91l-2.982 11.126h-1.94l2.983-11.126h1.939zM117.912 54.188c-.215 1.144-.044 1.972.516 2.488a2.85 2.85 0 0 0 2.001.771c.99 0 1.892-.381 2.704-1.146.808-.765 1.393-1.812 1.75-3.143.385-1.434.393-2.561.026-3.379-.366-.821-1.069-1.23-2.108-1.23-.816 0-1.631.292-2.442.877a5.036 5.036 0 0 0-1.776 2.264l-.671 2.498zm-2.172 4.363h-.937l4.03-15.036h1.938l-1.544 5.761c1.275-1.439 2.695-2.16 4.26-2.16 1.432 0 2.498.505 3.195 1.512.699 1.006.789 2.469.274 4.389-.442 1.652-1.288 3.041-2.542 4.161-1.25 1.122-2.639 1.683-4.16 1.683-1.697 0-2.805-.717-3.328-2.148l-1.186 1.838zM133.312 57.427c.987 0 1.912-.364 2.773-1.092.865-.726 1.5-1.858 1.912-3.392.411-1.541.362-2.66-.152-3.355-.514-.691-1.238-1.039-2.18-1.039-.963 0-1.872.35-2.729 1.051-.854.701-1.486 1.812-1.892 3.331-.431 1.609-.405 2.761.075 3.454.485.695 1.213 1.042 2.193 1.042m-.531 1.431c-1.713 0-2.897-.565-3.555-1.698-.658-1.133-.758-2.535-.311-4.211.477-1.772 1.394-3.188 2.756-4.245 1.364-1.06 2.848-1.588 4.453-1.588 1.721 0 2.928.556 3.621 1.671.695 1.113.82 2.505.373 4.172-.465 1.735-1.383 3.152-2.746 4.252-1.364 1.099-2.894 1.647-4.591 1.647M144.814 56.082l-.66 2.469h-2.77l.661-2.469h2.769zM156.277 54.65l1.682.275c-.578 1.23-1.383 2.193-2.419 2.889a6.043 6.043 0 0 1-3.452 1.045c-1.722 0-2.881-.568-3.479-1.698-.599-1.134-.679-2.515-.242-4.146.452-1.689 1.304-3.097 2.558-4.218 1.25-1.119 2.695-1.682 4.334-1.682 1.359 0 2.352.363 2.978 1.085.624.724.884 1.659.772 2.804l-1.833.297c.162-1.834-.585-2.752-2.243-2.752-1.07 0-2.002.404-2.795 1.217-.791.812-1.361 1.863-1.709 3.154-.381 1.428-.391 2.535-.031 3.322.357.79 1.059 1.186 2.094 1.186 1.602 0 2.863-.928 3.785-2.778M164.566 57.427c.986 0 1.91-.364 2.773-1.092.861-.726 1.496-1.858 1.908-3.392.414-1.541.363-2.66-.152-3.355-.512-.691-1.238-1.039-2.176-1.039-.966 0-1.873.35-2.73 1.051-.854.701-1.484 1.812-1.894 3.331-.431 1.609-.405 2.761.076 3.454.483.695 1.211 1.042 2.195 1.042m-.535 1.431c-1.713 0-2.896-.565-3.553-1.698s-.76-2.535-.309-4.211c.473-1.772 1.39-3.188 2.754-4.245 1.362-1.06 2.846-1.588 4.451-1.588 1.721 0 2.93.556 3.624 1.671.694 1.113.817 2.505.37 4.172-.465 1.735-1.381 3.152-2.746 4.252-1.361 1.099-2.894 1.647-4.591 1.647M189.497 58.551h-1.889l1.855-6.918c.189-.712.276-1.246.263-1.604-.018-.355-.199-.682-.549-.979-.348-.297-.789-.446-1.326-.446-.738 0-1.537.305-2.385.907-.85.606-1.439 1.532-1.773 2.772l-1.68 6.268h-1.877l1.961-7.326c.264-.976.186-1.666-.229-2.072a2.06 2.06 0 0 0-1.486-.603c-.824 0-1.626.313-2.404.946a4.525 4.525 0 0 0-1.556 2.398l-1.786 6.656h-1.852l2.982-11.126h1.668l-.572 2.138c1.367-1.632 2.865-2.445 4.496-2.445.898 0 1.59.259 2.076.78.483.523.719 1.149.705 1.886 1.332-1.778 2.882-2.666 4.654-2.666.848 0 1.533.216 2.057.648.521.433.803.932.848 1.493.041.562-.076 1.354-.347 2.374l-1.854 6.919z"/></svg>