<?xml version="1.0" encoding="utf-8"?>
<!DOCTYPE svg PUBLIC "-//W3C//DTD SVG 1.1//EN" "http://www.w3.org/Graphics/SVG/1.1/DTD/svg11.dtd">
<svg version="1.1" xmlns="http://www.w3.org/2000/svg" xmlns:xlink="http://www.w3.org/1999/xlink" viewBox="0 0 24 24" width="24px" height="24px" x="0" y="0" preserveAspectRatio="xMinYMin meet" class="social-icon">
  <g style="fill: white" class="solid-icon">
    <rect x="-0.003" style="fill:none;" width="24" height="24"></rect>
    <path style="" d="M20,2h-16c-1.1,0-2,0.9-2,2v16c0,1.1,0.9,2,2,2h16c1.1,0,2-0.9,2-2V4C22,2.9,21.1,2,20,2zM8,19h-3v-9h3V19zM6.5,8.8C5.5,8.8,4.7,8,4.7,7s0.8-1.8,1.8-1.8S8.3,6,8.3,7S7.5,8.8,6.5,8.8zM19,19h-3v-4c0-1.4-0.6-2-1.5-2c-1.1,0-1.5,0.8-1.5,2.2V19h-3v-9h2.9v1.1c0.5-0.7,1.4-1.3,2.6-1.3c2.3,0,3.5,1.1,3.5,3.7V19z"></path>
  </g>
</svg>
