<?xml version="1.0" encoding="UTF-8"?>
<svg width="125px" height="77px" viewBox="0 0 125 77" version="1.1" xmlns="http://www.w3.org/2000/svg" xmlns:xlink="http://www.w3.org/1999/xlink">
    <!-- Generator: Sketch 46.1 (44463) - http://www.bohemiancoding.com/sketch -->
    <title>Asset 5</title>
    <desc>Created with Sketch.</desc>
    <defs></defs>
    <g id="Final" stroke="none" stroke-width="1" fill="none" fill-rule="evenodd">
        <g id="login--copy" transform="translate(-658.000000, -209.000000)" fill-rule="nonzero" fill="#FFFFFF">
            <g id="Asset-5" transform="translate(658.000000, 209.000000)">
                <rect id="Rectangle-path" transform="translate(13.050000, 38.072500) rotate(90.000000) translate(-13.050000, -38.072500) " x="6.9775" y="25.7857975" width="12.145" height="24.5734049" rx="6.0725"></rect>
                <path d="M123.605805,32.8738583 C118.296694,22.6678178 111.102463,14.3320936 102.792549,8.74013283 C96.389773,3.88132488 88.5731117,1.18508248 80.4981281,1.05 C80.3827126,1.05 80.2672971,1.09746996 80.1518817,1.09746996 L39.5448732,1.09746996 C35.2979599,1.21091839 32.1616211,2.94717039 32.1616211,7.14086914 C32.1616211,10.6191406 34.767981,13.1328125 38.498291,13.1328125 L46.6140705,13.1328125 C50.2775879,13.1328125 55.2712402,16.8820801 55.2712402,22.1784668 C55.2712402,27.4748535 51.0190942,31.9628906 46.6044526,31.9628906 L42.2571366,31.9628906 C38.0076565,31.9628906 34.795166,33.9293262 34.795166,38.1240354 C34.795166,42.3187446 38.0076565,44.2312012 42.2571366,44.2312012 L49.5667829,44.2312012 C53.4812908,44.2312012 57.0969238,49.1293945 57.0969238,54.0307617 C57.0969238,58.9321289 53.1254264,63.987198 49.2782442,64.034668 L47.2392376,64.034668 C42.9897576,64.0346681 39.9995117,66.0274588 39.9995117,70.222168 C39.9995117,74.4168771 42.9897576,76.0999999 47.2392376,76.1 L77.3722925,76.1 C86.2977553,76.1 97.5699992,72.1884756 103.244593,67.7262998 C111.400619,62.143833 118.412109,53.8555787 123.605805,43.8394181 C125.380738,40.3941866 125.380738,36.3190898 123.605805,32.8738583 Z M62.0600259,38.7994418 C62.0548134,28.9945619 69.9962415,21.0404478 79.8011171,21.0300102 C89.6059928,21.0195725 97.5643378,28.9567607 97.5800005,38.7616294 C97.5747796,48.5665131 89.6248858,56.5121738 79.8200006,56.5121724 C70.0151194,56.5499874 62.0652385,48.6043216 62.0600259,38.7994418 Z" id="Shape"></path>
                <circle id="Oval" cx="18.57" cy="6.87" r="6.15"></circle>
                <circle id="Oval" cx="26.44" cy="70.23" r="6.215"></circle>
            </g>
        </g>
    </g>
</svg>